<svg id="svg" xmlns="http://www.w3.org/2000/svg" xmlns:xlink="http://www.w3.org/1999/xlink" width="400" height="73.67467149977345" viewBox="0, 0, 400,73.67467149977345"><g id="svgg"><path id="path0" d="M45.690 0.226 C 43.438 1.051,43.333 1.443,43.333 9.045 L 43.333 15.435 43.753 16.277 C 44.205 17.184,45.105 18.111,46.015 18.607 C 46.542 18.894,47.067 18.917,53.250 18.917 C 62.890 18.917,62.315 19.541,62.326 9.062 C 62.334 1.420,62.331 1.397,61.223 0.552 L 60.610 0.083 53.430 0.052 C 48.086 0.028,46.107 0.073,45.690 0.226 M45.992 21.824 C 45.277 22.041,44.223 22.786,43.810 23.366 L 43.417 23.917 43.365 30.333 C 43.304 38.024,43.391 38.462,45.250 39.795 C 46.443 40.650,46.595 40.667,53.400 40.666 C 62.798 40.666,62.338 41.182,62.320 30.667 C 62.306 22.736,62.263 22.535,60.429 21.838 C 59.900 21.637,46.651 21.624,45.992 21.824 M213.250 25.008 C 206.569 25.891,202.630 29.589,202.609 35.000 C 202.586 41.083,207.051 45.019,215.083 45.993 C 221.508 46.772,224.992 50.510,223.028 54.518 C 220.640 59.393,210.026 59.287,207.222 54.361 C 206.312 52.763,205.472 52.167,204.134 52.167 C 201.281 52.167,200.465 54.986,202.555 57.622 C 209.828 66.793,227.114 64.813,228.986 54.594 C 230.340 47.198,226.027 42.308,217.000 41.006 C 211.091 40.154,208.922 38.917,208.329 36.062 C 207.727 33.161,209.790 30.946,213.655 30.346 C 218.019 29.669,221.117 30.913,223.383 34.250 C 225.482 37.341,229.806 35.455,228.399 32.062 C 226.327 27.066,219.992 24.117,213.250 25.008 M396.695 25.414 C 394.791 26.008,394.759 26.135,394.699 33.372 L 394.648 39.495 393.532 38.637 C 389.424 35.478,383.668 35.286,379.277 38.162 C 377.979 39.012,376.179 40.825,375.814 41.650 C 375.688 41.934,375.538 42.167,375.480 42.167 C 375.421 42.167,375.276 42.410,375.157 42.708 C 375.038 43.006,374.773 43.626,374.567 44.086 C 373.226 47.081,373.356 52.453,374.845 55.638 C 379.588 65.780,394.591 65.695,399.212 55.500 C 400.022 53.712,400.000 54.151,400.000 39.898 L 400.000 26.346 399.644 26.014 C 398.883 25.306,397.769 25.079,396.695 25.414 M338.700 36.251 C 337.417 36.483,335.587 37.269,334.336 38.125 L 333.589 38.637 333.170 37.777 C 332.294 35.982,329.458 35.757,328.262 37.387 C 327.718 38.129,327.719 61.211,328.263 61.940 C 329.397 63.458,332.262 63.359,333.131 61.772 C 333.386 61.305,333.426 60.381,333.500 53.083 C 333.599 43.353,333.520 43.675,336.225 42.089 C 337.767 41.186,339.113 41.070,343.837 41.433 C 345.475 41.559,346.123 41.225,346.508 40.058 C 347.452 37.198,343.664 35.351,338.700 36.251 M243.333 36.421 C 238.465 37.422,234.571 41.108,233.247 45.968 C 232.363 49.213,233.091 54.905,234.662 57.029 C 234.848 57.281,235.001 57.546,235.003 57.618 C 235.004 57.691,235.210 57.983,235.461 58.267 C 235.712 58.551,236.067 58.988,236.250 59.238 C 239.674 63.906,248.213 64.471,253.292 60.366 L 254.000 59.793 254.000 65.886 C 254.000 72.225,254.023 72.457,254.724 73.208 C 255.137 73.652,255.206 73.667,256.900 73.667 L 258.650 73.667 259.117 73.055 L 259.583 72.443 259.629 60.445 C 259.668 50.336,259.636 48.217,259.423 46.985 C 258.150 39.609,250.918 34.860,243.333 36.421 M306.333 36.421 C 301.411 37.434,297.425 41.266,296.209 46.155 C 295.568 48.733,295.911 53.235,296.917 55.433 C 297.146 55.933,297.333 56.389,297.333 56.446 C 297.333 56.613,298.437 58.226,299.093 59.017 C 303.168 63.932,311.324 64.619,316.137 60.454 L 316.917 59.779 317.029 60.566 C 317.430 63.364,321.267 64.049,322.405 61.526 C 322.824 60.597,322.712 47.445,322.272 45.917 C 321.677 43.851,319.187 39.690,318.529 39.662 C 318.467 39.659,318.079 39.356,317.667 38.989 C 315.139 36.735,310.221 35.621,306.333 36.421 M356.500 36.419 C 349.512 37.845,345.108 45.051,346.657 52.523 C 347.129 54.800,347.830 56.545,348.650 57.484 C 348.843 57.704,349.002 57.929,349.004 57.984 C 349.049 58.966,353.450 61.976,355.750 62.597 C 362.439 64.404,371.234 61.267,369.830 57.575 C 369.295 56.167,366.771 55.430,365.711 56.372 C 361.442 60.161,353.180 57.720,351.905 52.292 L 351.797 51.833 360.737 51.833 C 370.659 51.833,370.417 51.859,371.270 50.737 C 372.501 49.116,371.336 43.496,369.166 40.592 C 366.501 37.024,361.542 35.390,356.500 36.419 M266.802 36.747 C 265.587 37.573,265.500 38.126,265.503 44.965 C 265.507 51.131,265.671 53.401,266.262 55.433 C 268.416 62.843,277.511 65.619,284.622 61.038 C 284.971 60.814,285.006 60.829,285.175 61.274 C 286.075 63.648,289.601 63.615,290.495 61.225 C 290.956 59.993,291.027 39.712,290.576 38.192 C 289.915 35.967,286.887 35.591,285.432 37.554 C 285.093 38.011,285.081 38.237,285.000 45.887 L 284.917 53.750 284.513 54.570 C 282.283 59.100,274.453 59.149,272.156 54.646 C 271.464 53.289,271.443 53.056,271.346 45.470 C 271.239 37.145,271.308 37.598,270.002 36.708 C 269.196 36.160,267.638 36.179,266.802 36.747 M362.403 41.635 C 364.380 42.530,365.560 44.050,366.407 46.792 L 366.522 47.167 359.167 47.167 L 351.811 47.167 351.926 46.792 C 352.652 44.427,353.892 42.839,355.783 41.855 C 357.285 41.073,360.897 40.953,362.403 41.635 M248.397 41.585 C 254.367 43.140,256.225 51.903,251.467 56.065 C 246.951 60.016,239.978 57.704,238.584 51.793 C 237.096 45.482,242.355 40.011,248.397 41.585 M311.511 41.600 C 318.415 43.631,319.214 53.999,312.718 57.263 L 311.417 57.917 309.333 57.917 C 305.975 57.917,303.674 56.516,302.257 53.608 C 299.060 47.051,304.786 39.621,311.511 41.600 M390.278 42.001 C 398.057 45.828,395.573 57.917,387.008 57.917 L 384.914 57.917 383.682 57.281 C 377.116 53.894,377.742 43.928,384.664 41.635 C 386.232 41.116,388.822 41.284,390.278 42.001 M2.537 43.578 C 0.054 44.353,0.001 44.538,0.001 52.406 C -0.000 60.006,-0.025 59.857,1.472 61.187 C 2.795 62.362,2.589 62.333,9.870 62.333 C 19.406 62.333,19.000 62.776,19.000 52.355 C 19.000 44.635,18.862 44.061,16.870 43.507 C 15.894 43.236,3.435 43.298,2.537 43.578 M46.222 43.493 C 45.263 43.722,44.195 44.475,43.747 45.240 L 43.319 45.971 43.368 52.610 C 43.423 60.049,43.368 59.701,44.690 61.024 C 46.007 62.340,45.911 62.326,53.300 62.330 C 62.839 62.335,62.226 62.982,62.302 52.833 C 62.379 42.599,63.070 43.325,53.267 43.350 C 49.683 43.360,46.512 43.424,46.222 43.493 " stroke="none" fill="#44abc4" fill-rule="evenodd"></path><path id="path1" d="M67.046 0.425 C 65.059 1.415,65.002 1.656,65.001 9.011 C 65.000 16.046,65.022 16.182,66.420 17.580 C 67.818 18.978,67.954 19.000,74.989 18.999 C 81.691 18.998,81.928 18.966,82.929 17.927 C 84.051 16.762,84.083 16.510,84.083 8.833 C 84.083 1.388,84.117 1.641,83.004 0.583 L 82.478 0.083 75.198 0.037 L 67.917 -0.009 67.046 0.425 M24.328 21.821 C 23.368 22.118,22.293 22.951,21.902 23.700 C 21.711 24.065,21.667 25.386,21.667 30.698 L 21.667 37.245 22.125 38.152 C 23.314 40.503,23.930 40.665,31.714 40.666 C 38.618 40.667,38.691 40.658,39.557 39.674 C 40.585 38.506,40.579 38.554,40.634 31.111 C 40.692 23.261,40.665 23.057,39.465 22.226 L 38.779 21.750 31.764 21.720 C 27.907 21.704,24.560 21.749,24.328 21.821 M71.237 25.429 C 70.863 25.565,70.300 25.940,69.987 26.264 L 69.417 26.852 69.373 43.981 L 69.329 61.111 69.710 61.676 C 70.612 63.015,72.298 63.416,73.703 62.626 C 75.060 61.864,75.000 62.449,75.000 49.968 L 75.000 38.923 80.391 49.705 C 86.775 62.472,86.157 61.533,88.167 61.533 C 89.902 61.533,90.204 61.231,91.868 57.833 C 92.474 56.596,94.072 53.333,95.418 50.583 C 96.765 47.833,98.646 44.008,99.599 42.083 L 101.331 38.583 101.332 49.850 L 101.333 61.117 101.712 61.680 C 102.957 63.526,105.750 63.433,106.744 61.512 C 107.184 60.660,107.126 27.565,106.683 26.702 C 105.863 25.105,103.392 24.795,102.122 26.129 C 101.884 26.379,100.888 28.233,99.909 30.250 C 98.929 32.267,97.417 35.379,96.547 37.167 C 95.677 38.954,94.476 41.429,93.877 42.667 C 93.278 43.904,92.076 46.379,91.206 48.167 C 90.336 49.954,89.359 51.960,89.036 52.625 C 88.714 53.290,88.404 53.833,88.348 53.833 C 88.259 53.833,84.546 46.462,76.819 30.944 C 73.976 25.234,73.385 24.650,71.237 25.429 M122.750 36.428 C 122.108 36.555,121.433 36.727,121.250 36.812 C 121.067 36.896,120.579 37.108,120.167 37.283 C 115.551 39.240,112.667 44.002,112.667 49.667 C 112.667 51.141,113.041 53.771,113.325 54.297 C 113.410 54.454,113.607 54.939,113.762 55.373 C 115.093 59.104,118.995 62.047,123.917 63.033 C 127.062 63.663,132.592 62.460,134.914 60.641 C 136.074 59.732,136.062 59.752,136.135 58.603 L 136.206 57.495 135.458 56.748 C 134.510 55.799,133.043 55.663,131.927 56.420 C 126.728 59.948,119.726 57.889,118.176 52.375 L 118.023 51.833 127.001 51.833 C 132.252 51.833,136.151 51.768,136.394 51.675 C 137.548 51.236,138.001 50.424,137.997 48.800 C 137.973 40.119,131.337 34.734,122.750 36.428 M150.564 36.348 C 140.041 38.108,136.096 52.262,143.986 59.949 C 148.182 64.037,155.351 64.291,160.121 60.520 L 160.941 59.872 161.142 60.844 C 161.661 63.359,164.984 63.934,166.338 61.743 C 166.680 61.190,166.685 61.050,166.622 53.881 L 166.558 46.583 166.053 45.167 C 163.744 38.691,157.571 35.176,150.564 36.348 M182.083 36.415 C 180.924 36.672,179.393 37.342,178.363 38.043 C 177.967 38.312,177.621 38.506,177.594 38.474 C 177.567 38.443,177.419 38.147,177.266 37.818 C 176.402 35.964,173.563 35.820,172.260 37.564 C 171.790 38.193,171.624 60.235,172.081 61.417 C 172.684 62.979,174.837 63.593,176.305 62.622 C 177.510 61.825,177.500 61.900,177.502 53.605 C 177.505 44.950,177.536 44.764,179.222 43.210 C 182.100 40.557,187.151 40.740,189.649 43.588 C 191.111 45.255,191.333 46.745,191.334 54.897 C 191.335 60.837,191.355 61.284,191.650 61.767 C 192.938 63.879,196.304 63.349,196.840 60.950 C 197.088 59.842,196.955 46.486,196.684 45.250 C 195.227 38.605,189.052 34.868,182.083 36.415 M128.531 41.559 C 130.488 42.418,132.221 44.547,132.589 46.542 L 132.704 47.167 125.414 47.167 L 118.125 47.167 118.233 46.627 C 118.681 44.386,121.040 41.990,123.384 41.395 C 124.559 41.097,127.705 41.197,128.531 41.559 M155.362 41.576 C 158.849 42.484,161.173 45.740,161.162 49.701 C 161.137 58.785,149.530 61.282,145.968 52.970 C 143.287 46.713,148.908 39.895,155.362 41.576 M24.303 43.566 C 23.385 43.813,22.432 44.496,21.986 45.228 C 21.687 45.718,21.668 46.144,21.667 52.231 C 21.667 59.673,21.658 59.616,22.949 60.928 C 24.375 62.377,24.108 62.333,31.612 62.333 C 41.154 62.333,40.667 62.867,40.667 52.411 C 40.667 42.655,41.342 43.328,31.564 43.345 C 26.907 43.353,24.864 43.415,24.303 43.566 " stroke="none" fill="#9b9b9b" fill-rule="evenodd"></path><path id="path2" d="" stroke="none" fill="#58a0c8" fill-rule="evenodd"></path><path id="path3" d="" stroke="none" fill="#58a0c8" fill-rule="evenodd"></path><path id="path4" d="" stroke="none" fill="#58a0c8" fill-rule="evenodd"></path></g></svg>